Coordinates
version=1
nRows=29
nColumns=24
inDegrees=yes

Units are S.I. units (second, meters, Newtons, ...)
Angles are in degrees.

endheader
time	pelvis_tilt	pelvis_list	pelvis_rotation	pelvis_tx	pelvis_ty	pelvis_tz	hip_flexion_r	hip_adduction_r	hip_rotation_r	knee_angle_r	ankle_angle_r	subtalar_angle_r	mtp_angle_r	hip_flexion_l	hip_adduction_l	hip_rotation_l	knee_angle_l	ankle_angle_l	subtalar_angle_l	mtp_angle_l	lumbar_extension	lumbar_bending	lumbar_rotation
      1.31500000	     23.60139966	     -0.12795344	      4.46755806	     -0.50593793	      0.84172408	      0.00956203	    -41.06725899	      7.02752904	    -20.47702297	     -2.19006558	     32.41658498	     16.12653655	     27.55947876	     -6.93360783	      1.17192018	    -15.60647379	      0.30205072	     15.13208894	     12.70871424	     46.48324902	    -41.05198675	      4.61027998	     -7.74782488
      1.32000000	     23.70436208	     -0.20967662	      4.38095221	     -0.50057879	      0.84152160	      0.00949869	    -41.28868289	      6.92194611	    -20.22072868	     -2.92967531	     32.51104908	     16.15788991	     27.62576529	     -6.92985610	      1.09679588	    -15.45249091	     -0.45277755	     14.78023024	     12.64842025	     46.48132214	    -41.13522539	      4.54962025	     -7.74661409
      1.32500000	     23.77456847	     -0.29946726	      4.29475908	     -0.49521633	      0.84134862	      0.00944796	    -41.42804149	      6.80516669	    -19.93316509	     -3.77920762	     32.63155716	     16.23024675	     27.78737730	     -6.86662140	      0.99813981	    -15.25354528	     -1.33973353	     14.42740570	     12.45222301	     46.50947523	    -41.18651904	      4.48927748	     -7.77986745
      1.33000000	     23.84271622	     -0.37983864	      4.22193220	     -0.48984537	      0.84124619	      0.00936740	    -41.53015678	      6.67799079	    -19.68391311	     -4.70804357	     32.71908980	     16.29497028	     28.03910852	     -6.78511444	      0.89571231	    -14.98396411	     -2.33172420	     14.04168330	     12.09851683	     46.55529591	    -41.23464629	      4.42665703	     -7.81378641
      1.33500000	     23.89306587	     -0.45135445	      4.23063618	     -0.48449431	      0.84118613	      0.00913729	    -41.58353060	      6.58501821	    -19.55234165	     -5.68986665	     32.65978851	     16.36691671	     28.72702269	     -6.67301528	      0.79248036	    -14.46620399	     -3.38054213	     13.57511290	     11.39863743	     46.73811220	    -41.26347886	      4.40885249	     -7.89996920
      1.34000000	     23.97656435	     -0.49841491	      4.18623317	     -0.47910047	      0.84124499	      0.00899226	    -41.62767187	      6.42839551	    -19.39037976	     -6.78392221	     32.59889655	     16.36662283	     29.75008951	     -6.59690795	      0.70704472	    -14.06000944	     -4.50011876	     13.14276792	     10.71322002	     47.04764569	    -41.33030195	      4.33088759	     -7.97448655
      1.34500000	     24.09159007	     -0.54377155	      4.10748942	     -0.47367242	      0.84143518	      0.00891444	    -41.67545171	      6.24476650	    -19.16794402	     -7.94312352	     32.51187599	     16.35269040	     31.18868451	     -6.58020978	      0.61567319	    -13.70129890	     -5.60979172	     12.63149124	     10.03247784	     47.46458422	    -41.42966236	      4.22555722	     -7.99113721
      1.35000000	     24.13415640	     -0.61300315	      4.10141277	     -0.46824643	      0.84157789	      0.00875017	    -41.57938014	      6.11124490	    -19.03386369	     -9.25724784	     32.49554955	     16.39110844	     31.50583859	     -6.40335974	      0.46759215	    -13.31660175	     -6.93749076	     12.37172549	      9.54224346	     47.48910235	    -41.44856830	      4.18008947	     -8.05933911
      1.35500000	     24.21746350	     -0.61269525	      4.10378422	     -0.46277311	      0.84183384	      0.00848040	    -41.48380502	      5.90533202	    -19.03166840	    -10.68565268	     32.38998518	     16.40529620	     32.60065118	     -6.33980477	      0.41966421	    -12.78408067	     -8.14005961	     12.04680002	      8.61667869	     47.49910654	    -41.50766937	      4.08763975	     -8.19209881
      1.36000000	     24.23143524	     -0.68962509	      4.11998718	     -0.45732933	      0.84207412	      0.00821386	    -41.23034906	      5.75398728	    -18.98737374	    -12.28819021	     32.26758156	     16.45027389	     33.16470192	     -6.15012753	      0.26263449	    -12.34617909	     -9.47329743	     11.85471401	      8.10841916	     47.47139475	    -41.49728019	      4.06999530	     -8.24117933
      1.36500000	     24.31596592	     -0.65226244	      4.15737834	     -0.45178408	      0.84243533	      0.00785499	    -41.03702114	      5.51004310	    -19.11465944	    -13.95067651	     32.01983307	     16.38777862	     34.88589301	     -6.12186034	      0.25500741	    -11.78784166	    -10.65558339	     11.68882544	      7.19570469	     47.28557835	    -41.55163270	      3.96628394	     -8.41913145
      1.37000000	     24.29124157	     -0.70346939	      4.19600399	     -0.44623108	      0.84274064	      0.00749286	    -40.62943358	      5.31140061	    -19.19264694	    -15.81928148	     31.68496445	     16.39182073	     35.79960764	     -5.95189302	      0.13825525	    -11.32813079	    -11.90052735	     11.67617142	      6.74105264	     47.16317346	    -41.48727074	      3.94273378	     -8.48781466
      1.37500000	     24.38124434	     -0.63528515	      4.22704630	     -0.44064411	      0.84320856	      0.00708643	    -40.32520412	      4.99917457	    -19.39772296	    -17.74169518	     31.32857649	     16.20740432	     38.06516783	     -5.99677333	      0.17291984	    -10.82521546	    -12.97782214	     11.59722930	      6.01770448	     46.71574317	    -41.54678246	      3.81406435	     -8.65550670
      1.38000000	     24.38147802	     -0.61007432	      4.27048223	     -0.43500820	      0.84361971	      0.00664801	    -39.85094093	      4.70372281	    -19.59712413	    -19.81547878	     30.82325754	     16.02457390	     39.81935080	     -5.94779951	      0.15895623	    -10.38200675	    -14.06209676	     11.67725926	      5.57853527	     46.30621903	    -41.50224862	      3.73283460	     -8.78057704
      1.38500000	     24.39274230	     -0.54648268	      4.31145413	     -0.42935617	      0.84408174	      0.00614826	    -39.33331800	      4.34509150	    -19.86380901	    -22.00812550	     30.24277483	     15.84081892	     41.59530394	     -5.98295593	      0.20607836	     -9.91788098	    -14.99334052	     11.78085575	      5.13218095	     45.84762952	    -41.47059768	      3.62347723	     -8.91437104
      1.39000000	     24.38245858	     -0.47029530	      4.34134471	     -0.42368810	      0.84455115	      0.00560545	    -38.73026740	      3.94052575	    -20.13967819	    -24.32019820	     29.55492509	     15.56870186	     43.55759286	     -6.05579036	      0.28505579	     -9.45877093	    -15.79708940	     11.95814790	      4.76668159	     45.34910937	    -41.41352242	      3.50528855	     -9.02844036
      1.39500000	     24.36416693	     -0.34778958	      4.37873953	     -0.41799823	      0.84501238	      0.00502003	    -38.07467801	      3.47496504	    -20.47767031	    -26.72035533	     28.77699868	     15.23360719	     45.35929202	     -6.15606268	      0.42221319	     -9.03406506	    -16.53677750	     12.17624650	      4.41546781	     44.89102993	    -41.34731113	      3.35271386	     -9.19425894
      1.40000000	     24.27465540	     -0.23916519	      4.40439714	     -0.41232240	      0.84537378	      0.00441335	    -37.27509310	      2.98291145	    -20.77407747	    -29.24517732	     27.98914992	     14.96016843	     46.13972442	     -6.18511730	      0.55320052	     -8.68584332	    -17.26877279	     12.50447233	      4.12454777	     44.72262510	    -41.20612124	      3.21099735	     -9.33282664
      1.40500000	     24.28589182	     -0.01552743	      4.38512906	     -0.40659472	      0.84591692	      0.00383976	    -36.57418091	      2.35546241	    -21.12932917	    -31.75268078	     26.90951977	     14.28847350	     49.10187774	     -6.46301398	      0.82647026	     -8.36164458	    -17.71793746	     12.72663908	      3.85696673	     44.05076815	    -41.17246480	      2.94288281	     -9.51493241
      1.41000000	     24.15393640	      0.15829484	      4.40339403	     -0.40090936	      0.84623897	      0.00319380	    -35.66268299	      1.77337984	    -21.41167231	    -34.33974328	     25.94367687	     13.73945355	     49.58345315	     -6.56140571	      1.05223869	     -8.02396747	    -18.19650712	     13.07069607	      3.64701689	     43.92210296	    -40.98574482	      2.74320067	     -9.67224553
      1.41500000	     24.10658570	      0.43384613	      4.39197236	     -0.39515892	      0.84669356	      0.00253546	    -34.84958144	      1.07025687	    -21.76135952	    -36.86694664	     24.73044014	     12.93292673	     51.98793956	     -6.86132942	      1.40057580	     -7.73823913	    -18.45904092	     13.35310479	      3.44102386	     43.30157023	    -40.88787943	      2.44453276	     -9.90015117
      1.42000000	     23.96939509	      0.65173846	      4.36514205	     -0.38946535	      0.84700654	      0.00193726	    -33.88633587	      0.41822503	    -21.94315172	    -39.42254474	     23.64835686	     12.13828368	     52.20314014	     -7.05591346	      1.68272640	     -7.52720193	    -18.72290138	     13.72192264	      3.36799923	     43.22270054	    -40.69654492	      2.18361218	    -10.05115820
      1.42500000	     23.85163205	      0.93072526	      4.38741998	     -0.38376051	      0.84735208	      0.00122330	    -32.96394839	     -0.26792377	    -22.20762055	    -41.86618474	     22.42071097	     11.23060344	     53.38488706	     -7.33341921	      2.03960701	     -7.22688851	    -18.84653737	     14.00981752	      3.23775196	     42.76785968	    -40.52486250	      1.90537643	    -10.30066252
      1.43000000	     23.75293561	      1.19939983	      4.31049838	     -0.37802959	      0.84770826	      0.00072994	    -32.04182560	     -0.96839843	    -22.30459301	    -44.24652690	     21.41107792	     10.27775303	     53.41469129	     -7.65416416	      2.36882164	     -7.19594858	    -18.94543317	     14.38183732	      3.31215250	     42.71893149	    -40.37391425	      1.56839261	    -10.43978579
      1.43500000	     23.62008433	      1.44580617	      4.28420534	     -0.37233787	      0.84802602	      0.00016756	    -31.08411443	     -1.59529556	    -22.35163680	    -46.48975716	     20.38687570	      9.24122321	     53.41967801	     -7.95700593	      2.67748066	     -7.08487367	    -18.97891049	     14.76425586	      3.31797950	     42.60376936	    -40.18703269	      1.28603619	    -10.64411081
      1.44000000	     23.51844627	      1.71191459	      4.25351113	     -0.36663148	      0.84838941	     -0.00039813	    -30.17189573	     -2.22934903	    -22.39713293	    -48.60977452	     19.52064943	      8.22433487	     53.29177419	     -8.33048521	      2.99928077	     -7.02785885	    -18.93505117	     15.08720735	      3.45906367	     42.52333217	    -40.03145043	      0.98986656	    -10.81809475
      1.44500000	     23.40661583	      1.92913099	      4.23049160	     -0.36098323	      0.84874527	     -0.00091226	    -29.23921604	     -2.76962105	    -22.34677653	    -50.58299057	     18.78525982	      7.12681623	     52.99737035	     -8.69633506	      3.26057163	     -6.98814620	    -18.86763409	     15.45633983	      3.59759971	     42.41245174	    -39.86966540	      0.73858013	    -10.97954682
      1.45000000	     23.28336363	      2.09120867	      4.21775446	     -0.35535110	      0.84911161	     -0.00138341	    -28.29153301	     -3.20654920	    -22.21520062	    -52.39556745	     18.20796034	      5.98368271	     52.36307536	     -9.05200776	      3.45191008	     -6.98874730	    -18.78673346	     15.87191980	      3.79540829	     42.21658533	    -39.69253151	      0.54148148	    -11.12428361
      1.45500000	     23.21037074	      2.26201839	      4.23663264	     -0.34972570	      0.84953432	     -0.00185670	    -27.42255011	     -3.61036815	    -22.11666690	    -54.06888916	     17.96255684	      5.15644784	     49.66917281	     -9.46123962	      3.62201156	     -7.04889972	    -18.72424366	     16.35590976	      4.35195688	     41.30387513	    -39.57158461	      0.35876344	    -11.33439699
